<svg width="20" height="20" viewBox="0 0 20 20" fill="none" xmlns="http://www.w3.org/2000/svg">
<path d="M-0.000488281 6.25V13.75C-0.000488281 17.2012 2.79826 20 6.24951 20H13.7495C17.2008 20 19.9995 17.2012 19.9995 13.75V6.25C19.9995 2.79875 17.2008 0 13.7495 0H6.24951C2.79826 0 -0.000488281 2.79875 -0.000488281 6.25ZM13.7495 1.875C16.162 1.875 18.1245 3.8375 18.1245 6.25V13.75C18.1245 16.1625 16.162 18.125 13.7495 18.125H6.24951C3.83701 18.125 1.87451 16.1625 1.87451 13.75V6.25C1.87451 3.8375 3.83701 1.875 6.24951 1.875H13.7495Z" fill="white"/>
<path d="M4.99951 10C4.99951 12.7613 7.23826 15 9.99951 15C12.7608 15 14.9995 12.7613 14.9995 10C14.9995 7.23875 12.7608 5 9.99951 5C7.23826 5 4.99951 7.23875 4.99951 10ZM13.1245 10C13.1245 11.7225 11.722 13.125 9.99951 13.125C8.27576 13.125 6.87451 11.7225 6.87451 10C6.87451 8.2775 8.27576 6.875 9.99951 6.875C11.722 6.875 13.1245 8.2775 13.1245 10Z" fill="white"/>
<path d="M5.29075 4.62501C5.29075 4.25705 4.99246 3.95876 4.6245 3.95876C4.25654 3.95876 3.95825 4.25705 3.95825 4.62501C3.95825 4.99297 4.25654 5.29126 4.6245 5.29126C4.99246 5.29126 5.29075 4.99297 5.29075 4.62501Z" fill="white"/>
</svg>
